<?xml version="1.0" encoding="UTF-8"?>
<svg id="Layer_1" data-name="Layer 1" xmlns="http://www.w3.org/2000/svg" viewBox="0 0 554.24 555.36">
  <defs>
    <style>
      .cls-1 {
        fill: #feffe9;
        stroke: #00338e;
      }

      .cls-1, .cls-2, .cls-3 {
        stroke-miterlimit: 10;
      }

      .cls-1, .cls-3 {
        stroke-width: 5px;
      }

      .cls-2 {
        stroke: #fff;
        stroke-width: 6px;
      }

      .cls-2, .cls-3 {
        fill: none;
      }

      .cls-3 {
        stroke: #f2f2f2;
      }

      .cls-4 {
        font-family: MyriadPro-Regular, 'Myriad Pro';
        font-size: 60px;
      }

      .cls-5 {
        fill: #00338e;
        stroke-width: 0px;
      }
    </style>
  </defs>
  <path class="cls-3" d="m269.48,105.98c2.4,12.19,12.22,21.35,23.8,22.61,13.38,1.45,26.52-7.91,29.75-22.1"/>
  <path class="cls-2" d="m270.16,102.07c.06,13.85,10.45,25.22,23.12,26.52,14.14,1.46,27.78-9.97,28.56-25.5"/>
  <ellipse class="cls-1" cx="277.12" cy="269.65" rx="306.74" ry="229.53" transform="translate(-109.3 256.07) rotate(-42.2)"/>
  <g>
    <path class="cls-5" d="m361.56,458.11c1.27-.04,2.88-.46,4.27-1.39,2.06-1.37,2.56-3.25,1.49-4.82-.97-1.45-2.38-1.73-5-1.11-3.14.79-5.62.52-7.07-1.67-1.63-2.42-.79-5.58,2.22-7.58,1.59-1.05,3-1.47,3.93-1.55l.54,2.02c-.69.04-2.02.28-3.43,1.23-2.14,1.43-2.1,3.24-1.39,4.29.97,1.45,2.38,1.53,5.1.93,3.33-.73,5.52-.34,7.03,1.95,1.59,2.38,1.23,5.66-2.46,8.12-1.51,1.01-3.45,1.65-4.66,1.65l-.56-2.06Z"/>
    <path class="cls-5" d="m368.03,437.11l-4.66,3.29-1.17-1.67,11.31-8,1.17,1.67-4.68,3.31,9.63,13.62-1.98,1.41-9.61-13.63Z"/>
    <path class="cls-5" d="m374.76,430.11c.83-.93,2.14-2.12,3.47-3.12,2.04-1.55,3.69-2.16,5.26-2.02,1.23.1,2.44.79,3.31,1.96,1.47,1.96,1.21,4.23.04,5.93l.04.06c1.45-.46,2.94.1,4.47,1.39,2.06,1.73,3.49,2.9,4.25,3.25l-2,1.51c-.56-.26-1.87-1.29-3.67-2.86-1.98-1.73-3.39-1.91-5.18-.65l-1.83,1.37,4.88,6.49-1.93,1.45-11.11-14.77Zm7.05,5.36l1.98-1.49c2.06-1.55,2.54-3.67,1.25-5.38-1.47-1.95-3.49-1.75-5.54-.22-.93.69-1.53,1.27-1.79,1.61l4.09,5.48Z"/>
    <path class="cls-5" d="m404.15,418.51c4.03,5,3.14,10.14-.6,13.12-3.87,3.12-8.97,2.28-12.52-2.12-3.71-4.62-3.29-9.96.6-13.1,3.99-3.22,9.03-2.24,12.52,2.1Zm-11.15,9.35c2.52,3.12,6.45,4.54,9.43,2.16,3-2.4,2.46-6.51-.2-9.82-2.34-2.9-6.29-4.72-9.43-2.2-3.14,2.52-2.38,6.67.2,9.86Z"/>
    <path class="cls-5" d="m412.67,423.79l-12.31-14.11,2-1.75,10.74,3.18c2.48.75,4.58,1.53,6.53,2.4l.02-.06c-1.81-1.75-3.33-3.43-5.24-5.62l-5.16-5.91,1.71-1.49,12.31,14.11-1.85,1.61-10.72-3.24c-2.34-.73-4.7-1.51-6.75-2.44l-.04.08c1.67,1.69,3.18,3.37,5.22,5.7l5.26,6.03-1.73,1.51Z"/>
    <path class="cls-5" d="m436.54,400.93c-.5,1.05-1.65,2.98-3.47,4.7-2.06,1.95-4.25,3.04-6.79,3.02-2.24-.02-4.66-1.13-6.67-3.25-3.83-4.07-3.87-9.67.69-13.99,1.57-1.49,3.14-2.32,3.99-2.6l.91,1.85c-1.03.36-2.18.97-3.55,2.26-3.29,3.12-3.51,7.22-.3,10.64,3.25,3.45,7.26,3.53,10.44.52,1.15-1.09,1.77-1.98,1.98-2.58l-3.83-4.05-2.76,2.6-1.33-1.41,4.47-4.25,6.21,6.55Z"/>
    <path class="cls-5" d="m430.91,381.62c.83-1.25,1.93-2.64,3.24-4.03,2.38-2.52,4.68-3.77,6.91-3.91,2.24-.18,4.51.6,6.69,2.66,2.24,2.1,3.39,4.51,3.45,6.95.06,2.48-1.23,5.24-3.71,7.88-1.19,1.27-2.22,2.26-3.18,3.06l-13.4-12.6Zm13.73,9.59c.5-.38,1.11-1.01,1.75-1.69,3.57-3.77,3.37-7.78-.32-11.25-3.2-3.06-6.95-3.14-10.44.58-.85.91-1.41,1.67-1.77,2.22l10.78,10.14Z"/>
    <path class="cls-5" d="m444.76,366.18l14.05,12.38-1.61,1.83-14.05-12.38,1.61-1.83Z"/>
    <path class="cls-5" d="m459.33,373.52c1.21-.4,2.64-1.27,3.71-2.54,1.59-1.91,1.53-3.85.08-5.06-1.33-1.11-2.76-.99-5.12.34-2.8,1.65-5.24,2.06-7.26.4-2.24-1.87-2.34-5.12,0-7.92,1.23-1.45,2.46-2.26,3.35-2.58l1.09,1.79c-.65.24-1.87.85-2.96,2.14-1.65,1.96-1.11,3.69-.12,4.53,1.33,1.11,2.72.79,5.14-.56,3-1.65,5.2-1.89,7.3-.12,2.2,1.85,2.78,5.08-.06,8.49-1.17,1.39-2.86,2.56-4.01,2.88l-1.15-1.79Z"/>
    <path class="cls-5" d="m468.02,358.26l3.49,5.12-1.53,1.98-10.98-16.47,1.77-2.3,18.76,6.33-1.57,2.04-5.89-1.98-4.05,5.28Zm2.26-6.03l-5.4-1.81c-1.23-.42-2.28-.87-3.29-1.31l-.04.06c.71.87,1.43,1.81,2.12,2.8l3.18,4.76,3.43-4.51Z"/>
    <path class="cls-5" d="m466.29,339.66c.42-1.01,1.23-2.48,2.2-3.85,1.39-1.98,2.62-3.04,4.05-3.43,1.15-.38,2.4-.22,3.61.62,1.49,1.03,2.1,2.94,1.55,4.94l.06.04c1.37-1.21,3.77-2.08,6.07-.48,1.31.91,1.96,2.14,2.14,3.45.26,1.75-.5,3.79-2.26,6.31-.95,1.37-1.79,2.34-2.32,2.96l-15.1-10.56Zm7.68,2.4l1.27-1.83c1.45-2.08,1.21-4.09-.3-5.12-1.79-1.25-3.45-.4-4.84,1.61-.63.91-.93,1.49-1.09,1.87l4.96,3.47Zm7.36,5.12c.36-.36.77-.89,1.27-1.61,1.43-2.06,2-4.49-.24-6.03-2.08-1.45-4.23-.26-5.74,1.91l-1.15,1.65,5.85,4.09Z"/>
    <path class="cls-5" d="m475.8,325.23l15.7,10.2-1.33,2.04-15.7-10.2,1.33-2.04Z"/>
    <path class="cls-5" d="m478,321.82l1.27-2.08,14.25,8.67,4.17-6.85,1.75,1.05-5.42,8.91-16.02-9.71Z"/>
    <path class="cls-5" d="m485.78,308.7l16.29,9.23-1.19,2.12-16.29-9.23,1.19-2.12Z"/>
    <path class="cls-5" d="m491.22,302.95l-2.64,5.06-1.81-.95,6.43-12.29,1.81.95-2.66,5.08,14.79,7.74-1.13,2.16-14.79-7.76Z"/>
    <path class="cls-5" d="m512.68,297.31l-7.2-3.33-12.29.85,1.17-2.52,5.8-.2c1.59-.04,2.86-.1,4.29-.06l.02-.06c-.89-.99-1.75-2.08-2.72-3.33l-3.53-4.62,1.15-2.48,7.11,10.2,7.22,3.35-1.01,2.2Z"/>
    <path class="cls-5" d="m515.34,276.19l4.82,3.87-.87,2.34-15.3-12.54,1.01-2.72,19.79.58-.91,2.42-6.21-.18-2.32,6.23Zm.4-6.43l-5.7-.16c-1.29-.04-2.44-.18-3.53-.3l-.02.06c.93.64,1.91,1.31,2.84,2.06l4.43,3.63,1.98-5.3Z"/>
    <path class="cls-5" d="m508.19,259.08c.2-1.49.56-3.22,1.11-5.04,1.01-3.31,2.52-5.46,4.47-6.57,1.94-1.15,4.31-1.47,7.18-.6,2.94.89,5.04,2.54,6.19,4.7,1.15,2.2,1.23,5.26.18,8.71-.5,1.67-.99,3.02-1.49,4.15l-17.64-5.36Zm16.57,2.5c.28-.56.56-1.41.81-2.3,1.53-4.96-.44-8.47-5.28-9.94-4.23-1.31-7.62.26-9.11,5.14-.36,1.19-.52,2.12-.6,2.78l14.17,4.33Z"/>
    <path class="cls-5" d="m532.25,241.94l-19.65,1.65.62-2.56,9.67-.69c2.64-.2,5.02-.34,7.26-.34l.02-.06c-1.98-1.01-4.11-2.3-6.27-3.69l-8.28-5.22.6-2.52,16.69,10.84-.66,2.6Z"/>
    <path class="cls-5" d="m528.26,212.7c6.33,1.09,9.05,5.52,8.24,10.22-.83,4.9-5.2,7.64-10.78,6.69-5.85-1.01-9.07-5.28-8.22-10.2.85-5.04,5.26-7.64,10.76-6.71Zm-2.18,14.39c3.95.67,7.86-.85,8.49-4.62.65-3.79-2.46-6.51-6.65-7.22-3.67-.64-7.84.64-8.51,4.58-.67,3.97,2.64,6.57,6.67,7.26Z"/>
    <path class="cls-5" d="m538.89,197.34c.34.91.62,2.74.36,5.02-.56,5.24-4.29,8.83-10.4,8.18-5.83-.62-9.35-4.98-8.73-10.76.24-2.3.89-3.73,1.29-4.33l1.89.79c-.52.85-.99,2.12-1.17,3.67-.46,4.37,2.02,7.56,6.91,8.08,4.55.48,7.74-1.83,8.22-6.33.16-1.49.02-3-.34-4.03l1.98-.3Z"/>
    <path class="cls-5" d="m534.11,190.17l5.89,1.95v2.5l-18.74-6.37v-2.92l18.74-6.39v2.58l-5.89,2v6.65Zm-1.91-6.15l-5.4,1.85c-1.23.4-2.34.69-3.41.97v.06c1.09.26,2.24.56,3.39.93l5.42,1.85v-5.66Z"/>
    <path class="cls-5" d="m522.36,173.26l.77,5.66-2.02.28-1.91-13.73,2.02-.28.79,5.68,16.53-2.28.34,2.4-16.53,2.28Z"/>
    <path class="cls-5" d="m526.23,152.35l1.71,7.07,6.57-1.59-1.91-7.9,1.96-.48,2.48,10.26-18.2,4.41-2.38-9.84,1.96-.48,1.81,7.48,5.78-1.39-1.71-7.07,1.92-.48Z"/>
    <path class="cls-5" d="m530.62,146.57c.28-1.25.28-2.92-.28-4.49-.81-2.34-2.5-3.29-4.31-2.66-1.65.58-2.28,1.87-2.34,4.56-.02,3.24-.91,5.56-3.39,6.43-2.76.95-5.6-.62-6.79-4.07-.62-1.81-.67-3.27-.5-4.21l2.1-.02c-.14.67-.24,2.04.32,3.63.85,2.42,2.6,2.86,3.81,2.42,1.65-.58,2.08-1.93,2.18-4.7.14-3.41,1.05-5.42,3.65-6.33,2.72-.95,5.8.22,7.24,4.43.6,1.71.73,3.75.42,4.92l-2.12.08Z"/>
  </g>
  <path class="cls-5" d="m322.08,124.47l.52-.58c8.44-4.89,16.35-14.99,16.35-25.42,0-15.6-12.11-29.05-27.7-29.05s-31.28,14.56-31.28,30.15c0,5.93,2.01,11.71,5.23,16.4,2.06,3,5.01,5.28,8.4,6.59l.53.2-1.58,10.35-1.27,6.97c-23.3-.03-56.15,0-58.66,0-4.46,0-4.04,1.74-4.04,1.74v21.36c-.01,1.16,1.06,1.59,1.06,1.59l56.51-.34s-16.45,80.14-23.94,93.32c-2.81,4.95-87.98,12.06-87.98,12.06l-60.61,97.97-19.78-6.85-8.44,17.55,40.15,15.26,59.81-97.45s48.65-3.3,74.8-7.68c26.14-4.37,31.34-29.14,31.34-29.14l23.27-94.63c79.9-.04,87.25,54.53,89.27,69.45,10.37-10.86,18.61-9.69,18.61-9.69-10.88-90.04-103.15-83.75-103.15-83.75"/>
  <path class="cls-5" d="m214.07,367.71c3.7-5.21,11.42-4.59,20.52-19.14,4.58-7.32,9.69-14.54,13.19-20.54,9.51-16.33,6.08-17.2,18.33-21,.79-.25,4.24-.03,7,.95,4.1,1.47,6.04,8.27,5.11,12.53l-8.3,37.96c0,.61.58,1.04,1.16.83,6.2-2.11,35.66-11.96,43.25-12.6.43-.04.84-.21,1.17-.49l32.6-22.34s8.15-5.32,8.19-5.36c1.07-1.09,20.32-26.34,27.26-29.71,7.01-3.4,14.35-45.51,36.94-36.99.94.35,1.43,1.41,1.07,2.34-2.62,6.67-9.01,19.52-11.25,44.21-1.07,11.83-9.27,15.37-25.92,38.95-8.28,11.72-8.85,15.7-19.04,32.38-.08.13-3.9,7.48-4,7.59l-40.76,35.64c-2.97,2.6-5.65,5.51-7.99,8.68l-13.48,18.29c-.3.25-.52.57-.64.94l-3.24,23.45c.05.47,6.56,51.25,6.17,51.51-5.83,3.8-14.68,15.72-87.38,18.27-.7-.45-1.06-1.28-.92-2.1l-3.72-76.9c-.08-2.12-.45-4.21-1.11-6.23-1.15-3.48-6.69-11.15-7.83-14.92-.7-2.3-.64-4.76.16-7.02l13.5-59.19Z"/>
  <path class="cls-5" d="m384.38,243.99c-7.33-16.04-6.87-21.08-13.29-16.96s-5.5,25.21-5.5,25.21c0,0,2.29,3.67,1.83,9.62-.46,5.96-4.12,18.79-4.12,27.04s-9.64,19.76-9.64,19.76c0,0,16.16-15.71,20.24-15.87,0,0-.45-2.8,3.48-10.49,3.26-6.36,6.97-13.08,9.67-16.4l-2.67-21.91Z"/>
  <path class="cls-5" d="m341.13,315.55l17.06-17.06,2.92-12.67s-5.99-35.85-9.16-40.24c-3.17-4.39-6.58-6.34-9.99,1.95-3.41,8.29.46,10.06.95,17.37.49,7.31,2.79,18.48,1.48,22.38-1.31,3.9-10.09,32.54-10.09,32.54l6.82-4.27Z"/>
  <path class="cls-5" d="m321.24,324.79l8.9-7.4,5.36-21.7s-7.59-9.37-12.48-4.93c-4.89,4.44-2.67,8.02-4.45,19.05-1.78,11.03-3.11,17.93-3.11,17.93l5.78-2.96Z"/>
  <path class="cls-5" d="m349.95,315.06c-33.25,14.28-44.96,18.98-44.96,18.98l-30.87,19.98,21.93-6.87,19.17-3.86"/>
  <text class="cls-4" transform="translate(446.91 539.98)"><tspan x="0" y="0">®</tspan></text>
</svg>